<mxfile host="app.diagrams.net" modified="2022-02-16T03:51:33.291Z" agent="5.0 (Macintosh; Intel Mac OS X 10_15_7) AppleWebKit/537.36 (KHTML, like Gecko) Chrome/98.0.4758.80 Safari/537.36" etag="gJxD0cGl8h6syt8agz8W" version="16.1.0" type="github">
  <diagram id="zmv14EIRIh1XnBUeHZPd" name="Page-1">
    <mxGraphModel dx="946" dy="614" grid="1" gridSize="10" guides="1" tooltips="1" connect="1" arrows="1" fold="1" page="1" pageScale="1" pageWidth="827" pageHeight="1169" math="0" shadow="0">
      <root>
        <mxCell id="0" />
        <mxCell id="1" parent="0" />
        <mxCell id="ueVJ6Dnfqbr4pKQyz9g1-1" value="User" style="shape=umlActor;html=1;verticalLabelPosition=bottom;verticalAlign=top;align=center;" vertex="1" parent="1">
          <mxGeometry x="100" y="120" width="30" height="60" as="geometry" />
        </mxCell>
        <mxCell id="ueVJ6Dnfqbr4pKQyz9g1-2" value="Restaurant" style="shape=umlActor;html=1;verticalLabelPosition=bottom;verticalAlign=top;align=center;" vertex="1" parent="1">
          <mxGeometry x="680" y="130" width="30" height="60" as="geometry" />
        </mxCell>
      </root>
    </mxGraphModel>
  </diagram>
</mxfile>
